<?xml version="1.0" standalone="no"?>
<!DOCTYPE svg PUBLIC "-//W3C//DTD SVG 20010904//EN"
 "http://www.w3.org/TR/2001/REC-SVG-20010904/DTD/svg10.dtd">
<svg version="1.0" xmlns="http://www.w3.org/2000/svg"
 width="794.000000pt" height="799.000000pt" viewBox="0 0 794.000000 799.000000"
 preserveAspectRatio="xMidYMid meet">
<metadata>
Created by potrace 1.15, written by Peter Selinger 2001-2017
</metadata>
<g transform="translate(0.000000,799.000000) scale(0.100000,-0.100000)"
fill="#000000" stroke="none">
<path d="M2730 6993 c-8 -3 -30 -19 -48 -36 -102 -97 -90 -413 28 -777 95
-292 98 -338 38 -476 -61 -138 -96 -365 -100 -649 -1 -129 5 -182 29 -260 23
-75 137 -294 193 -372 98 -136 117 -159 218 -261 l103 -103 -19 -52 c-61 -164
-116 -281 -297 -642 -262 -523 -295 -595 -353 -775 -42 -126 -61 -220 -76
-365 -10 -97 -14 -116 -23 -100 -27 49 -42 211 -47 526 -4 271 6 410 39 524
24 85 104 246 169 342 103 152 144 261 133 354 -20 169 -194 272 -386 229
-158 -35 -375 -197 -492 -367 -17 -25 -50 -86 -74 -136 -57 -124 -85 -219
-129 -447 -49 -251 -50 -267 -49 -520 1 -231 26 -449 79 -685 95 -427 301
-770 588 -980 94 -69 285 -168 378 -196 106 -31 312 -48 743 -59 1708 -44
1645 -44 1833 -10 134 23 339 110 438 185 62 46 156 137 199 190 79 99 162
290 214 495 54 212 52 599 -4 859 -60 275 -137 465 -331 818 -87 157 -235 452
-269 533 -33 81 -95 267 -95 285 0 7 4 15 8 17 20 8 206 222 269 310 156 215
247 468 259 718 11 218 -16 350 -123 607 l-56 133 61 182 c53 164 107 350 142
493 19 79 25 267 10 318 -29 106 -122 161 -229 137 -203 -45 -416 -126 -737
-281 -246 -118 -220 -114 -709 -114 l-420 0 -77 27 c-42 15 -125 52 -185 81
-59 30 -146 71 -193 91 -47 21 -110 48 -140 61 -77 34 -218 87 -328 124 -86
29 -146 37 -182 24z"/>
</g>
</svg>
