<?xml version="1.0" standalone="no"?><!DOCTYPE svg PUBLIC "-//W3C//DTD SVG 1.1//EN" "http://www.w3.org/Graphics/SVG/1.1/DTD/svg11.dtd"><svg class="icon" width="200px" height="187.03px" viewBox="0 0 1095 1024" version="1.1" xmlns="http://www.w3.org/2000/svg"><path d="M548.143693 3.849624c59.883041 0 119.97995-0.213868 179.86299 0 54.750209 0.213868 98.379282 36.785297 108.431078 90.252297 1.283208 7.271512 1.924812 14.97076 1.283208 22.456141-1.710944 18.820384-16.895572 32.080201-35.28822 32.507936-18.17878 0.427736-33.577277-12.83208-36.357561-31.438596-0.641604-4.491228-0.641604-8.982456-1.497076-13.473684-3.20802-13.90142-14.97076-24.808688-29.086049-26.947369-3.635756-0.641604-7.48538-0.855472-11.335004-0.855472H371.916458c-26.7335 0-39.993317 12.190476-42.131997 39.137845-1.497076 19.034252-17.964912 34.005013-36.999164 33.577276-19.675856-0.641604-35.074353-16.0401-35.502089-35.715956-1.283208-58.813701 47.050961-108.644946 107.14787-109.500418 61.380117-0.427736 122.546366 0.213868 183.712615 0 0 0.213868 0 0.213868 0 0zM1092.010025 297.490393c0-11.121136-1.283208-22.670008-4.27736-33.363409-13.473684-47.692565-55.819549-78.489557-107.14787-78.489557H130.459482c-7.057644 0-14.115288-0.213868-21.172932 0-58.385965 1.283208-106.292398 48.761905-106.292398 107.14787-0.213868 206.810359 0 413.620718 0 620.431077 0 22.670008 7.057644 43.629073 20.531328 61.807853 23.097744 31.224728 54.536341 45.553885 93.460318 45.553885 143.50543-0.213868 287.224728 0 430.730159 0 143.077694 0 286.155388 0.213868 429.233082 0 10.265664 0 20.745196-0.427736 30.583125-2.780284 50.686717-11.548872 84.691729-54.750209 84.691729-107.361738V500.878864c0-67.796157 0.213868-135.592314-0.213868-203.388471z m-72.501253 233.329991c0.213868 10.265664-8.126984 18.392648-18.392648 18.392649h-162.967419v35.28822c-0.213868 20.103592-16.467836 36.357561-36.35756 36.357561-20.103592 0-36.357561-16.253968-36.357561-36.357561v-35.28822H329.998329v35.28822c0 20.103592-16.253968 36.357561-36.35756 36.357561s-36.357561-16.253968-36.357561-36.357561v-35.28822H94.101921c-10.265664 0-18.392648-8.340852-18.392648-18.392649V494.035088c0-10.265664 8.340852-18.392648 18.392648-18.392649h907.014203c10.265664 0 18.392648 8.340852 18.392648 18.392649v36.785296z" fill="#2c2c2c" /></svg>