<?xml version="1.0" standalone="no"?>
<!DOCTYPE svg PUBLIC "-//W3C//DTD SVG 20010904//EN"
 "http://www.w3.org/TR/2001/REC-SVG-20010904/DTD/svg10.dtd">
<svg version="1.0" xmlns="http://www.w3.org/2000/svg"
 width="1280.000000pt" height="512.000000pt" viewBox="0 0 1280.000000 512.000000"
 preserveAspectRatio="xMidYMid meet">
<metadata>
Created by potrace 1.15, written by Peter Selinger 2001-2017
</metadata>
<g transform="translate(0.000000,512.000000) scale(0.100000,-0.100000)"
fill="#000000" stroke="none">
<path d="M6302 4661 c-69 -24 -119 -65 -159 -131 -103 -169 -40 -372 141 -456
72 -33 181 -33 252 0 121 56 187 157 188 286 1 66 -3 84 -32 143 -72 147 -234
212 -390 158z"/>
<path d="M5120 4370 c-174 -37 -404 -141 -680 -306 -167 -99 -280 -158 -359
-186 -243 -85 -476 -89 -695 -12 -80 28 -202 91 -260 136 -32 25 -27 17 24
-36 157 -163 322 -242 530 -253 129 -6 228 7 357 48 129 41 228 92 387 198
511 341 927 436 1301 296 56 -21 -39 33 -118 67 -161 70 -316 85 -487 48z"/>
<path d="M7464 4375 c-73 -16 -179 -57 -251 -97 -55 -31 -74 -49 -24 -24 75
39 193 60 336 60 311 0 606 -111 988 -371 134 -91 222 -136 352 -178 346 -114
641 -51 893 189 63 59 72 83 15 40 -67 -51 -233 -130 -329 -154 -118 -31 -288
-37 -410 -15 -180 32 -311 87 -554 235 -163 99 -446 239 -552 274 -167 54
-335 69 -464 41z"/>
<path d="M5910 4264 c127 -78 254 -192 384 -344 51 -60 19 -5 -44 75 -94 119
-221 225 -337 284 -88 44 -89 38 -3 -15z"/>
<path d="M6953 4271 c-40 -21 -98 -58 -128 -81 -74 -57 -189 -181 -243 -261
l-44 -64 43 50 c142 164 259 269 389 350 90 55 81 58 -17 6z"/>
<path d="M5235 4193 c-211 -44 -345 -112 -669 -337 -194 -134 -392 -222 -596
-262 l-95 -19 135 -3 c276 -7 385 34 796 300 347 225 500 295 694 318 52 7 97
14 99 16 12 11 -302 1 -364 -13z"/>
<path d="M7310 4207 c3 -3 48 -10 100 -17 173 -20 335 -88 573 -239 70 -45
184 -117 255 -162 289 -184 409 -223 662 -217 l135 3 -95 19 c-186 37 -389
123 -560 238 -52 36 -146 99 -208 141 -137 93 -262 155 -402 198 -98 30 -118
32 -285 36 -99 3 -178 3 -175 0z"/>
<path d="M1300 4140 c-265 -29 -473 -216 -563 -505 -13 -44 -27 -98 -31 -120
-4 -30 1 -22 23 35 47 125 116 222 210 295 221 169 512 199 1051 109 339 -57
508 -57 681 0 79 26 213 85 208 91 -2 2 -40 -6 -84 -17 -69 -18 -112 -21 -305
-21 -282 -1 -372 11 -850 111 -116 25 -240 32 -340 22z"/>
<path d="M11400 4140 c-41 -4 -127 -19 -190 -34 -349 -78 -521 -100 -785 -100
-198 1 -277 9 -383 40 -9 3 10 -9 43 -27 80 -43 210 -86 298 -100 101 -16 315
-5 477 25 365 66 658 77 845 31 33 -8 102 -36 154 -61 154 -76 268 -205 326
-371 30 -84 32 -64 4 42 -104 399 -387 597 -789 555z"/>
<path d="M5635 4084 c-232 -34 -443 -124 -708 -301 -163 -109 -293 -177 -422
-221 -159 -54 -242 -67 -435 -67 -170 0 -173 0 -110 -13 90 -18 396 -20 490
-4 195 35 333 90 520 207 294 185 542 272 805 282 193 7 340 -23 475 -99 29
-17 25 -10 -25 39 -114 110 -269 172 -450 178 -60 2 -123 1 -140 -1z"/>
<path d="M7025 4075 c-137 -26 -245 -79 -338 -167 -34 -33 -57 -58 -52 -56 6
2 44 20 85 41 106 52 177 68 322 74 295 13 573 -76 919 -292 173 -109 310
-162 499 -196 88 -16 335 -18 435 -4 69 9 68 9 -85 16 -311 13 -501 80 -818
288 -394 258 -689 348 -967 296z"/>
<path d="M3027 4048 c3 -18 17 -61 31 -96 69 -175 213 -318 416 -412 107 -50
147 -60 71 -18 -122 67 -216 146 -314 263 -69 82 -155 204 -185 263 -9 17 -19
32 -21 32 -2 0 -2 -15 2 -32z"/>
<path d="M9839 4001 c-132 -217 -296 -384 -463 -473 -107 -57 -59 -45 69 16
185 90 308 203 383 352 29 57 68 172 60 179 -1 1 -24 -32 -49 -74z"/>
<path d="M2776 3876 c-190 -71 -228 -321 -68 -443 53 -40 112 -57 178 -50 63
6 107 28 157 75 41 40 77 122 77 177 0 86 -66 188 -150 230 -46 24 -145 29
-194 11z"/>
<path d="M5642 3880 c-136 -19 -287 -82 -457 -190 -115 -73 -280 -157 -370
-187 l-70 -23 65 6 c155 14 371 70 656 167 231 80 299 91 522 84 179 -6 183
-5 167 13 -26 29 -163 96 -230 114 -78 20 -204 27 -283 16z"/>
<path d="M7070 3880 c-102 -13 -239 -69 -305 -124 l-30 -25 176 6 c225 8 296
-3 519 -79 305 -103 509 -156 675 -173 l60 -6 -73 26 c-97 34 -234 103 -359
182 -190 119 -326 174 -476 193 -89 11 -104 11 -187 0z"/>
<path d="M9980 3881 c-79 -26 -152 -95 -170 -160 -51 -185 84 -357 266 -338
92 9 175 70 212 156 21 49 20 157 -3 201 -24 49 -73 98 -120 122 -43 22 -144
33 -185 19z"/>
<path d="M1860 3816 c-52 -7 -97 -14 -100 -15 -3 -1 31 -15 75 -32 121 -45
255 -113 303 -154 24 -21 44 -36 46 -34 1 2 24 37 51 77 45 70 112 132 142
132 24 0 14 17 -14 25 -54 13 -406 14 -503 1z"/>
<path d="M10625 3825 c-5 -2 -31 -6 -57 -10 -27 -3 -48 -10 -48 -16 0 -5 6 -9
13 -9 31 0 98 -63 147 -137 l52 -78 38 36 c42 40 182 113 305 158 45 16 74 31
65 34 -52 19 -473 36 -515 22z"/>
<path d="M1340 3689 c-41 -11 -106 -38 -145 -61 -38 -23 -117 -66 -175 -96
-104 -54 -105 -54 -55 -48 82 12 172 36 315 84 130 45 141 46 280 52 l144 5
-59 31 c-62 33 -142 54 -198 53 -18 0 -66 -9 -107 -20z"/>
<path d="M11425 3704 c-63 -15 -122 -38 -153 -59 l-34 -23 144 -4 c139 -4 147
-5 278 -50 74 -25 155 -51 180 -57 56 -14 194 -40 197 -37 2 1 -23 13 -55 26
-31 12 -109 53 -172 91 -63 37 -142 77 -176 88 -62 20 -173 34 -209 25z"/>
<path d="M8983 3493 c9 -2 23 -2 30 0 6 3 -1 5 -18 5 -16 0 -22 -2 -12 -5z"/>
<path d="M2776 1566 c-97 -36 -169 -139 -169 -241 0 -109 83 -218 186 -246 52
-14 133 -6 178 16 83 42 149 144 149 230 0 86 -66 188 -150 230 -46 24 -145
29 -194 11z"/>
<path d="M9980 1571 c-79 -26 -152 -95 -170 -160 -13 -46 -13 -126 0 -172 13
-47 72 -114 124 -142 58 -30 174 -31 232 0 48 26 100 82 122 132 19 45 20 134
3 185 -17 49 -73 112 -125 138 -44 22 -145 33 -186 19z"/>
<path d="M4035 1489 c-107 -14 -101 -17 36 -18 303 -2 537 -82 845 -287 228
-152 393 -231 583 -281 137 -36 342 -38 451 -4 109 33 201 85 272 153 35 32
59 58 53 56 -5 -2 -44 -20 -85 -41 -123 -60 -182 -72 -370 -72 -126 0 -184 4
-245 19 -196 45 -410 138 -612 265 -62 39 -134 81 -160 94 -64 32 -220 83
-313 102 -92 19 -359 27 -455 14z"/>
<path d="M8535 1494 c-239 -37 -404 -96 -568 -204 -183 -121 -402 -219 -595
-267 -95 -24 -127 -27 -277 -28 -149 0 -180 3 -250 24 -44 12 -109 38 -144 57
-36 18 -66 32 -68 30 -11 -11 130 -120 200 -155 118 -59 189 -75 337 -75 256
0 494 88 816 302 82 55 190 120 239 145 194 97 399 146 619 148 102 1 122 3
91 10 -45 10 -354 20 -400 13z"/>
<path d="M955 1462 c39 -16 115 -55 170 -88 124 -74 182 -99 266 -114 85 -15
172 0 254 43 l59 32 -144 6 c-140 5 -150 7 -285 53 -121 41 -340 97 -378 96
-6 -1 20 -13 58 -28z"/>
<path d="M11910 1465 c-58 -12 -170 -45 -250 -71 l-145 -49 -137 0 c-76 0
-138 -3 -138 -6 0 -13 100 -59 160 -75 119 -30 228 -2 413 108 54 33 130 72
170 88 86 35 68 36 -73 5z"/>
<path d="M706 1445 c12 -74 64 -219 106 -295 52 -94 169 -213 253 -257 156
-82 361 -99 590 -49 435 96 545 110 825 110 175 0 241 -4 295 -17 39 -9 81
-19 95 -22 37 -9 -62 40 -149 74 -195 75 -379 79 -736 16 -202 -36 -219 -38
-455 -39 -272 -1 -319 6 -455 69 -167 77 -282 203 -349 382 -21 55 -25 60 -20
28z"/>
<path d="M4818 1455 c90 -29 239 -104 368 -185 157 -99 249 -141 384 -175 92
-24 274 -22 362 4 75 22 198 83 224 112 17 18 14 19 -152 12 -229 -8 -290 2
-563 93 -123 41 -287 90 -365 109 -231 55 -392 74 -258 30z"/>
<path d="M8070 1473 c-204 -35 -389 -84 -625 -166 -237 -82 -235 -82 -483 -82
-246 1 -241 3 -137 -60 101 -60 201 -86 335 -86 192 -1 344 51 572 194 131 82
273 154 363 183 57 19 64 23 35 22 -19 0 -46 -3 -60 -5z"/>
<path d="M12187 1420 c-64 -202 -241 -364 -472 -431 -75 -22 -96 -24 -320 -23
-244 1 -300 6 -580 59 -111 21 -344 30 -430 16 -38 -6 -104 -22 -145 -35 -75
-25 -214 -86 -208 -91 2 -2 39 5 83 16 105 25 341 35 507 20 161 -14 337 -42
548 -87 210 -45 318 -57 423 -45 312 36 519 235 602 579 22 89 17 101 -8 22z"/>
<path d="M3508 1436 c-212 -92 -345 -211 -428 -381 -35 -71 -65 -164 -56 -173
2 -1 18 23 36 55 115 206 300 399 470 492 91 49 82 53 -22 7z"/>
<path d="M3918 1463 c7 -3 16 -2 19 1 4 3 -2 6 -13 5 -11 0 -14 -3 -6 -6z"/>
<path d="M8988 1463 c7 -3 16 -2 19 1 4 3 -2 6 -13 5 -11 0 -14 -3 -6 -6z"/>
<path d="M9377 1431 c169 -89 313 -236 458 -466 46 -73 56 -83 50 -55 -45 215
-197 390 -446 510 -122 59 -166 67 -62 11z"/>
<path d="M3910 1378 c148 -30 196 -42 276 -72 164 -61 279 -126 484 -273 122
-87 282 -176 396 -219 121 -45 234 -64 393 -64 79 0 142 2 140 5 -3 2 -46 9
-97 15 -199 22 -350 92 -718 333 -253 165 -401 240 -536 272 -43 10 -113 14
-223 14 -125 -1 -150 -3 -115 -11z"/>
<path d="M8665 1375 c-119 -26 -257 -92 -440 -211 -396 -255 -486 -305 -637
-355 -49 -16 -131 -34 -181 -39 -50 -6 -93 -13 -96 -15 -2 -3 61 -5 140 -5
298 0 502 77 834 314 251 179 420 253 715 314 35 8 10 10 -115 10 -96 0 -184
-5 -220 -13z"/>
<path d="M10680 1307 c-49 -74 -116 -137 -147 -137 -24 0 -14 -18 15 -24 95
-22 523 -14 588 11 10 3 -33 25 -106 54 -139 55 -215 97 -264 143 l-34 32 -52
-79z"/>
<path d="M2135 1344 c-45 -40 -179 -108 -299 -152 -50 -18 -73 -31 -63 -35 66
-25 494 -33 590 -11 33 8 35 20 3 28 -33 8 -109 85 -148 152 -18 30 -35 54
-38 54 -3 -1 -23 -17 -45 -36z"/>
<path d="M3570 1236 c-173 -39 -352 -145 -449 -267 l-35 -42 55 41 c73 55 223
125 329 153 120 33 355 33 480 2 136 -34 265 -93 451 -204 605 -361 899 -424
1243 -264 95 44 131 73 51 41 -94 -37 -243 -59 -355 -52 -287 18 -567 126
-892 343 -224 149 -375 217 -553 249 -95 17 -249 17 -325 0z"/>
<path d="M8990 1230 c-173 -37 -305 -97 -504 -229 -351 -234 -618 -338 -912
-358 -109 -7 -268 17 -359 53 -79 32 -59 15 40 -34 158 -79 315 -106 476 -83
177 25 441 138 739 316 234 141 338 188 505 231 99 26 351 26 450 0 102 -26
230 -82 313 -136 39 -27 72 -44 72 -40 0 15 -135 133 -200 175 -182 116 -398
153 -620 105z"/>
<path d="M6265 1009 c-110 -131 -273 -272 -378 -326 -27 -13 -47 -27 -44 -29
7 -7 102 42 170 88 103 70 251 225 311 326 16 28 -3 8 -59 -59z"/>
<path d="M6565 1055 c75 -128 242 -286 385 -364 101 -55 112 -52 20 5 -126 77
-272 209 -389 349 -25 30 -29 33 -16 10z"/>
<path d="M6320 901 c-81 -26 -158 -89 -194 -158 -28 -55 -40 -143 -27 -203 51
-245 329 -340 523 -180 21 18 51 59 70 98 79 160 18 340 -144 423 -46 24 -180
36 -228 20z"/>
</g>
</svg>
