<?xml version="1.0" standalone="no"?>
<!DOCTYPE svg PUBLIC "-//W3C//DTD SVG 20010904//EN"
 "http://www.w3.org/TR/2001/REC-SVG-20010904/DTD/svg10.dtd">
<svg version="1.0" xmlns="http://www.w3.org/2000/svg"
 width="3000.000000pt" height="2252.000000pt" viewBox="0 0 3000.000000 2252.000000"
 preserveAspectRatio="xMidYMid meet">
<metadata>
Created by potrace 1.15, written by Peter Selinger 2001-2017
</metadata>
<g transform="translate(0.000000,2252.000000) scale(0.100000,-0.100000)"
fill="#000000" stroke="none">
<path d="M14886 15110 c-124 -22 -269 -127 -328 -236 -77 -142 -76 -258 2
-494 75 -226 406 -993 410 -949 0 3 -32 138 -70 300 -188 790 -205 891 -162
974 26 51 77 100 124 119 128 54 306 -49 342 -197 14 -57 -26 -287 -150 -862
-35 -165 -69 -313 -74 -330 -27 -79 19 10 104 201 119 266 240 567 302 754 46
138 48 150 48 255 0 97 -3 118 -27 175 -54 128 -171 240 -290 275 -66 20 -169
26 -231 15z"/>
<path d="M13893 14514 c-67 -33 -96 -118 -65 -188 24 -54 49 -71 137 -96 148
-42 295 -132 420 -256 78 -77 121 -134 172 -229 40 -73 42 -61 7 37 -47 130
-119 261 -211 385 -83 111 -287 328 -326 346 -44 21 -92 21 -134 1z"/>
<path d="M15905 14491 c-72 -45 -299 -299 -380 -427 -67 -104 -141 -267 -159
-349 -4 -21 4 -11 27 31 50 91 98 153 180 231 126 120 231 182 382 228 66 20
99 37 125 61 33 32 35 38 35 98 0 55 -4 68 -25 91 -53 57 -128 72 -185 36z"/>
<path d="M13590 14013 c-101 -52 -108 -191 -14 -254 26 -18 41 -19 155 -13 99
5 143 3 209 -10 228 -47 512 -202 704 -386 168 -161 244 -283 297 -475 18 -64
19 -66 13 -20 -14 116 -86 291 -172 418 -62 92 -179 222 -277 309 -190 168
-483 338 -709 412 -113 36 -163 41 -206 19z"/>
<path d="M16190 13981 c-225 -61 -525 -223 -724 -393 -143 -122 -291 -300
-358 -433 -41 -81 -86 -216 -93 -279 -5 -47 -4 -45 15 24 44 162 141 313 289
452 196 184 487 333 719 369 66 10 100 10 183 -1 96 -13 104 -13 137 6 54 29
77 67 77 127 0 62 -30 112 -81 133 -43 18 -84 17 -164 -5z"/>
<path d="M13663 13526 c-221 -42 -396 -165 -509 -355 -89 -151 -135 -329 -135
-521 0 -243 67 -416 221 -570 94 -96 169 -141 271 -165 229 -54 497 59 589
248 87 181 44 420 -98 548 -65 59 -136 84 -232 83 -98 -1 -172 -26 -227 -77
-72 -67 -94 -149 -68 -252 19 -72 56 -121 116 -153 39 -21 53 -23 132 -19 107
6 137 25 137 89 0 92 -102 119 -162 42 -25 -31 -69 -39 -107 -19 -80 41 -90
178 -17 251 60 60 184 73 273 29 92 -46 135 -128 136 -261 1 -69 -3 -89 -27
-137 -82 -169 -327 -226 -535 -124 -91 44 -217 169 -260 257 -33 70 -61 179
-61 247 0 151 66 310 174 419 126 125 248 168 481 168 239 -1 340 -38 482
-180 69 -69 89 -98 132 -185 135 -277 141 -601 17 -906 -102 -250 -319 -467
-584 -584 -96 -42 -268 -90 -397 -110 -168 -27 -630 -8 -767 31 -53 16 -457
12 -603 -5 -382 -45 -713 -131 -1047 -271 -587 -247 -1128 -633 -1570 -1118
-95 -104 -269 -322 -293 -366 -4 -8 55 46 131 121 647 632 1359 1093 2106
1365 359 130 662 202 1070 254 l167 21 83 -25 c105 -32 237 -63 347 -82 120
-21 415 -29 532 -15 641 75 1093 538 1148 1176 42 478 -172 905 -540 1080
-150 71 -355 100 -506 71z"/>
<path d="M16075 13514 c-140 -21 -296 -82 -394 -156 -165 -123 -291 -318 -347
-536 -98 -385 -16 -808 220 -1126 316 -428 852 -615 1496 -520 132 19 370 77
283 68 -640 -62 -1079 39 -1410 324 -271 233 -427 635 -384 987 42 348 208
583 466 661 83 25 299 25 410 0 103 -23 226 -82 292 -141 177 -156 248 -440
163 -656 -86 -216 -321 -364 -530 -332 -185 29 -305 141 -317 297 -18 214 129
347 320 292 76 -22 114 -56 132 -119 24 -86 -6 -169 -68 -185 -42 -11 -79 2
-105 38 -60 80 -184 15 -150 -80 15 -45 58 -62 153 -64 74 -1 86 2 130 29 71
44 105 112 105 209 0 87 -21 137 -77 187 -84 76 -246 105 -361 66 -202 -71
-302 -379 -195 -606 60 -126 213 -235 378 -267 181 -35 342 14 482 149 110
105 176 228 209 387 24 122 15 330 -21 460 -106 389 -378 621 -745 634 -58 3
-118 2 -135 0z"/>
<path d="M14972 12367 c-6 -61 -34 -323 -62 -582 -29 -258 -49 -489 -47 -513
5 -46 32 -84 79 -108 65 -34 147 -2 182 70 19 39 19 40 -7 250 -69 542 -127
989 -130 992 -2 2 -9 -47 -15 -109z"/>
<path d="M3595 11985 c-142 -25 -257 -64 -400 -135 -401 -198 -703 -551 -861
-1003 -149 -431 -174 -969 -68 -1481 23 -114 43 -175 30 -91 -13 81 -26 294
-26 435 0 838 247 1469 725 1849 304 242 653 350 1010 312 417 -45 789 -249
1129 -621 75 -82 65 -57 -30 73 -139 191 -372 387 -594 501 -244 125 -401 166
-660 171 -122 3 -199 0 -255 -10z"/>
<path d="M25976 11990 c-163 -26 -393 -107 -534 -187 -214 -124 -416 -301
-548 -483 -72 -99 -107 -150 -101 -150 2 0 44 47 94 104 261 296 638 517 995
583 130 24 384 24 496 0 476 -101 890 -446 1115 -927 144 -310 215 -646 232
-1100 6 -158 -5 -435 -22 -545 -13 -84 8 -23 32 96 54 263 75 570 56 809 -31
382 -99 639 -242 920 -83 163 -174 286 -319 430 -223 224 -476 368 -756 430
-111 25 -392 36 -498 20z"/>
<path d="M3738 11680 c-376 -60 -681 -257 -903 -585 -68 -101 -168 -312 -210
-445 -46 -143 -80 -306 -100 -475 -20 -176 -20 -548 1 -696 36 -265 129 -525
267 -754 20 -32 35 -60 33 -62 -1 -2 -34 8 -72 21 -110 38 -185 49 -297 44
-295 -16 -518 -194 -573 -458 -49 -231 59 -426 281 -510 67 -25 156 -30 221
-11 57 15 127 81 160 147 32 66 44 188 25 247 -45 136 -218 215 -346 158 -69
-31 -85 -48 -85 -92 0 -74 86 -106 133 -49 46 54 95 59 165 18 108 -66 78
-268 -51 -335 -106 -54 -294 32 -359 165 -48 100 -22 257 63 369 112 149 353
219 567 165 172 -44 346 -145 570 -331 312 -259 561 -406 922 -543 312 -118
636 -195 1005 -240 174 -21 805 -17 965 6 556 78 1051 250 1595 551 281 156
530 321 870 576 274 205 779 424 1152 498 252 50 514 64 674 36 453 -79 774
-435 745 -825 -20 -281 -170 -462 -426 -516 -272 -57 -481 88 -483 336 -2 197
107 330 270 330 98 0 166 -36 199 -106 42 -89 174 -57 174 42 0 33 -8 45 -59
95 -50 49 -71 61 -131 80 -106 32 -224 25 -313 -19 -141 -70 -223 -205 -234
-387 -10 -163 33 -282 136 -378 157 -145 449 -164 686 -45 311 156 443 561
311 950 -39 116 -79 184 -164 285 -155 182 -393 315 -640 358 -165 29 -450 15
-692 -35 -124 -25 -366 -103 -476 -154 -42 -20 -79 -35 -80 -33 -6 5 646 552
896 752 1038 831 1720 1131 2510 1102 351 -13 645 -86 919 -228 166 -86 266
-157 393 -278 289 -276 458 -617 514 -1036 21 -159 14 -428 -16 -567 -101
-475 -397 -869 -806 -1072 -274 -135 -536 -152 -842 -55 -326 105 -545 320
-613 606 -18 77 -21 109 -16 248 4 134 9 175 31 250 78 267 229 434 447 492
88 23 290 23 379 0 217 -58 341 -185 372 -380 54 -347 -270 -604 -482 -382
-19 20 -47 43 -62 51 -37 19 -96 18 -138 -4 -38 -20 -80 -89 -80 -131 0 -44
38 -106 78 -128 91 -51 277 -69 397 -38 239 63 389 301 372 595 -6 117 -33
202 -93 292 -122 183 -378 298 -666 298 -235 0 -398 -67 -563 -234 -138 -140
-224 -314 -261 -532 -23 -132 -15 -366 16 -479 120 -446 514 -749 1045 -806
503 -53 1007 209 1327 691 206 311 298 652 285 1055 -11 348 -99 663 -260 938
-333 564 -894 882 -1637 926 -688 41 -1353 -182 -2155 -723 -225 -152 -613
-446 -1060 -802 -622 -497 -840 -663 -1152 -879 -195 -135 -304 -205 -287
-184 200 245 312 486 365 784 20 113 23 164 24 385 0 278 -7 343 -57 494 -148
457 -542 755 -953 721 -297 -24 -506 -150 -615 -370 -50 -102 -70 -191 -70
-324 0 -164 35 -269 125 -368 85 -96 211 -140 370 -130 242 15 403 153 430
367 21 174 -94 381 -212 380 -93 -1 -117 -132 -31 -175 85 -43 125 -122 115
-227 -14 -152 -147 -251 -336 -250 -142 1 -245 61 -300 175 -112 230 -10 548
215 669 120 65 329 92 464 59 310 -75 557 -359 637 -731 26 -124 26 -613 0
-745 -67 -333 -200 -577 -469 -860 l-96 -101 -184 -91 c-708 -353 -1307 -481
-2073 -443 l-220 10 -93 45 c-243 117 -427 303 -591 597 -109 197 -141 303
-141 479 0 192 53 331 171 450 110 111 278 174 403 151 131 -25 246 -113 307
-237 58 -119 43 -221 -48 -306 -52 -51 -116 -80 -183 -86 -70 -7 -114 7 -159
49 -68 64 -81 150 -31 213 40 51 40 96 1 136 -66 65 -148 23 -177 -90 -19 -75
-13 -133 21 -208 105 -232 400 -271 602 -80 142 134 151 329 22 521 -169 254
-465 318 -762 164 -61 -31 -103 -63 -162 -123 -93 -93 -137 -163 -175 -278
-79 -235 -55 -491 67 -730 108 -210 300 -454 443 -563 27 -21 48 -39 47 -40
-7 -7 -334 69 -462 107 -258 75 -535 199 -745 332 -94 59 -152 107 -417 343
-234 209 -436 615 -484 971 -17 125 -5 485 20 628 57 324 151 574 303 801 188
282 464 469 781 529 104 20 357 20 470 0 403 -70 667 -300 748 -652 19 -81 21
-113 16 -231 -9 -218 -65 -370 -179 -484 -143 -143 -397 -189 -566 -104 -140
71 -222 246 -185 397 25 108 27 169 4 206 -26 42 -75 66 -134 67 -53 0 -88
-21 -124 -74 -30 -44 -29 -88 6 -191 122 -362 352 -543 670 -527 155 8 301 69
404 167 188 178 285 530 232 835 -73 419 -377 722 -820 816 -113 24 -416 36
-517 20z"/>
<path d="M25850 11680 c-470 -66 -800 -340 -912 -758 -30 -113 -36 -312 -13
-439 36 -201 105 -345 224 -464 128 -129 286 -186 481 -177 252 13 445 160
561 428 78 181 84 251 28 315 -77 87 -213 60 -255 -50 -16 -44 -16 -48 6 -122
45 -152 8 -299 -101 -397 -163 -146 -470 -119 -643 57 -102 104 -157 239 -175
429 -45 478 256 846 763 933 115 20 357 20 469 0 298 -52 575 -234 767 -504
113 -158 224 -409 279 -631 75 -305 92 -695 42 -932 -76 -354 -284 -721 -517
-909 -38 -31 -107 -91 -154 -134 -232 -211 -627 -406 -1060 -524 -90 -25 -353
-81 -358 -77 -1 2 14 16 35 32 156 117 338 347 455 575 86 166 113 292 105
486 -6 157 -28 243 -92 360 -121 221 -356 363 -600 363 -44 0 -100 -5 -125
-11 -144 -33 -286 -152 -361 -304 -44 -88 -44 -89 -44 -194 0 -97 2 -111 28
-159 40 -77 103 -134 191 -177 196 -94 385 -38 479 144 32 63 37 81 37 140 0
164 -89 251 -179 175 -42 -35 -44 -98 -5 -137 57 -57 34 -165 -49 -231 -31
-25 -49 -31 -103 -34 -59 -4 -72 -1 -139 32 -198 98 -217 300 -45 477 103 105
228 145 359 116 271 -62 440 -290 441 -594 0 -185 -43 -316 -183 -548 -155
-259 -334 -429 -562 -536 l-81 -38 -220 -11 c-750 -38 -1351 88 -2044 427
-181 89 -201 101 -273 172 -170 164 -298 338 -382 516 -62 129 -77 173 -110
320 -55 242 -55 645 0 860 70 277 251 515 469 620 105 50 186 68 301 68 294 0
495 -143 560 -398 35 -137 10 -307 -59 -397 -91 -118 -300 -157 -453 -82 -62
30 -125 98 -141 152 -34 113 5 236 88 278 54 27 70 48 70 92 0 48 -46 92 -95
92 -30 0 -45 -9 -94 -57 -81 -80 -105 -143 -105 -278 -1 -92 1 -105 31 -167
80 -168 253 -259 471 -245 194 11 332 115 394 296 20 57 23 85 23 211 -1 131
-3 153 -27 221 -83 238 -251 383 -513 446 -105 25 -307 22 -409 -6 -354 -95
-627 -407 -721 -821 -26 -114 -32 -505 -11 -670 42 -318 142 -566 323 -798 37
-47 60 -82 52 -77 -41 24 -326 217 -418 283 -289 208 -435 320 -1044 806 -777
619 -1139 876 -1552 1098 -573 308 -1096 439 -1632 407 -437 -26 -790 -137
-1104 -348 -438 -294 -725 -784 -789 -1349 -18 -156 -8 -460 19 -596 32 -159
82 -304 156 -451 87 -173 176 -296 315 -435 323 -323 705 -472 1109 -431 317
32 566 141 770 336 157 150 250 321 292 538 73 377 -62 795 -326 1010 -80 64
-221 132 -317 151 -88 18 -244 21 -337 6 -96 -16 -238 -65 -311 -107 -143 -83
-252 -230 -281 -381 -17 -87 -7 -271 19 -342 63 -178 173 -292 330 -340 142
-44 377 -13 445 58 59 62 56 150 -8 212 -33 32 -41 35 -99 35 -63 0 -63 0
-125 -57 -98 -91 -191 -108 -299 -57 -218 106 -259 489 -72 676 87 88 188 133
345 154 149 19 278 1 402 -57 221 -104 358 -361 370 -695 9 -222 -34 -376
-148 -529 -169 -228 -471 -373 -809 -387 -189 -8 -326 21 -507 108 -423 203
-740 638 -824 1132 -28 164 -23 464 11 632 125 627 535 1096 1140 1303 218 75
415 109 670 119 781 28 1470 -272 2490 -1087 190 -152 878 -726 920 -767 10
-10 0 -8 -26 6 -220 109 -533 195 -809 222 -280 27 -508 -4 -699 -94 -348
-165 -554 -453 -573 -799 -23 -426 219 -735 612 -779 307 -34 529 115 567 381
32 217 -61 419 -231 503 -63 31 -71 32 -181 32 -103 -1 -121 -4 -170 -27 -115
-54 -172 -139 -144 -213 8 -21 56 -45 89 -45 29 0 70 37 96 86 24 46 90 74
175 74 81 0 133 -21 183 -71 85 -85 115 -250 71 -385 -72 -215 -347 -287 -608
-158 -179 88 -281 273 -282 510 -1 350 280 668 675 765 194 48 547 30 845 -42
310 -76 800 -292 1002 -441 491 -365 765 -539 1128 -721 541 -272 1024 -414
1552 -458 200 -17 694 -6 883 20 725 98 1330 344 1790 727 269 224 393 301
595 370 85 29 282 27 371 -4 197 -68 312 -219 311 -409 -1 -141 -104 -259
-256 -293 -104 -23 -200 37 -232 146 -32 110 9 198 103 223 50 14 69 8 110
-35 40 -42 82 -45 118 -9 27 26 32 63 14 96 -16 32 -106 69 -165 69 -198 0
-316 -179 -250 -383 21 -64 87 -147 138 -173 118 -61 303 -17 427 101 100 95
142 220 121 363 -28 196 -135 344 -313 432 -174 86 -391 93 -576 20 -28 -11
-56 -20 -61 -20 -5 0 7 24 26 53 88 133 181 347 230 532 100 377 82 967 -41
1372 -63 205 -177 430 -294 575 -193 241 -423 391 -713 464 -87 22 -130 26
-283 29 -99 2 -209 0 -245 -5z"/>
<path d="M17381 11326 c3 -3 68 -13 145 -21 592 -68 1111 -223 1644 -490 566
-283 1083 -657 1584 -1144 134 -131 136 -129 15 30 -250 327 -621 672 -1004
932 -528 358 -1073 574 -1680 668 -110 17 -202 22 -425 26 -157 3 -283 2 -279
-1z"/>
<path d="M7852 8926 c-88 -103 -341 -349 -442 -430 -589 -473 -1286 -630
-2091 -472 -68 13 -164 36 -213 50 -49 14 -91 24 -93 22 -6 -6 194 -95 293
-129 377 -131 777 -159 1162 -81 549 110 1035 453 1364 964 53 82 92 150 86
150 -2 0 -32 -33 -66 -74z"/>
<path d="M22080 8997 c0 -14 110 -189 179 -281 159 -215 333 -383 541 -521
363 -243 717 -349 1160 -349 272 0 501 38 745 124 89 32 288 120 282 126 -1 2
-52 -10 -112 -27 -260 -70 -516 -103 -790 -103 -386 1 -704 73 -1030 234 -246
121 -415 240 -658 464 -76 70 -259 265 -302 322 -8 11 -15 15 -15 11z"/>
</g>
</svg>
