<?xml version="1.0" standalone="no"?><!DOCTYPE svg PUBLIC "-//W3C//DTD SVG 1.1//EN" "http://www.w3.org/Graphics/SVG/1.1/DTD/svg11.dtd"><svg class="icon" width="200px" height="199.80px" viewBox="0 0 1025 1024" version="1.1" xmlns="http://www.w3.org/2000/svg"><path d="M420.473319 463.99857c-22.021628 66.797033 46.434176 128.995263 102.146036 116.686031 30.281169-6.657968 83.327554-48.710698 71.338637-95.659666l-19.447672-34.044865c-6.863884-20.957726-7.653231-35.898114-25.945482-43.780141l-64.852266-1.624453c-26.208598 13.098579-53.961569 30.258289-63.239253 58.423094z" fill="#2c2c2c" /><path d="M996.032887 459.136652c-27.386898-9.998391-37.751363 14.059523-64.852266 8.110823-48.390383-10.616141-129.372777-54.853874-110.24542-124.842613l22.696577-25.945482c14.368398 0.400393 18.543927 6.177496 24.32103 14.585754l-17.834659 9.723836v21.072124c7.184199 6.989722 16.702118 19.870945 32.431853 12.972741 8.408258-3.123067 10.844937-7.218518 16.210206-12.972741 8.339619-39.341496-10.490303-65.76745-35.669318-76.200554h-38.895344c-27.089463 12.583788-28.347842 28.519439-37.29377 61.6148-22.181786 82.069175 27.512736 117.109304 79.449459 154.025561l-29.182948 84.311377-4.861918 3.237465c-16.541961-2.287961-24.9159-12.583788-37.29377-17.834659-25.865404-11.039414-58.995084-11.8402-94.035213-12.972741-11.27965-23.69184 17.365627-58.194298 4.861918-95.659665-15.912771-47.658236-91.404058-130.413799-58.343016-181.584056 26.414514-36.927697 140.229154-40.039324 123.218161-107.007954 38.963982-5.502547 26.117079-61.866476 16.210206-89.173296-16.793637-46.182501-43.356868-68.501564-110.291179-66.465278l-40.531236 24.343909c-2.848512 14.23112-5.9487 23.943516-11.348288 34.044866 2.37948 21.975869 17.15971 31.127715 21.072124 51.879524 29.354545 10.787738 50.243632-5.285191 59.990348-24.321029-5.799982-5.388149-7.618911-9.838234-16.210206-12.972741-4.049692 4.301367-5.719903 8.351059-6.486371 16.210206l-11.348289 1.624453h-1.624452c-8.145143-9.975512-21.735633-24.90446-11.348289-43.780142 29.02279-60.848333 121.902583-1.246939 97.23836 79.44946-15.375101 50.335151-73.386362 56.86728-118.356243 79.449459-15.38654 7.72187-56.135133 58.125659-63.227813 74.576102-23.840558 55.334346 44.535168 132.701761 58.343015 163.749396 17.331308 38.895344-8.328179 93.714899-9.723836 123.218161-31.333631 16.644919-51.158817 32.717848-84.311377 47.017607-5.91438 3.58066-7.332916 7.515953-8.110823 16.210206-14.654393-3.820896-25.339172-8.694253-45.393154-6.486371l-4.804719 14.585754-4.861918 3.294665-21.072124-19.447672c-10.295826 1.327018-12.778264 4.072571-19.447672 8.110823l-4.861918-12.972741-27.547055-8.168022c-7.458754-36.893377-71.853427-102.031638-51.879525-154.025561 12.984181-33.919028 51.879525-58.308696 63.204934-95.659666 6.863884-5.639825 8.133703-11.439807 14.585753-4.861918 11.737242 1.143981 15.317902-2.837072 21.083565-11.348288 9.781035-57.931182-3.740817-47.475199 30.8074-82.686925 5.525427-33.75887-24.446867-57.199035-27.558495-90.797748 10.295826-13.441773 34.182143-26.162839 27.558495-50.255072-4.484404-11.199571-14.677272-21.529717-25.945482-25.945482-16.862275-7.401555-34.170703 2.802753-43.780142 8.110823-21.369559-12.583788-46.765931-33.427116-74.576101-38.895343l-16.210207 8.110823h-40.531236c-23.08553 4.575923-51.673608 24.023595-55.128429 48.642059-31.688265 5.719903-36.607382 16.404683-48.642059 40.531236 1.738851 20.374296 14.505675 31.42515 24.321029 43.780141h21.072125l12.972741-9.723836c9.552239-11.622844 37.865761 3.065868 50.266511 12.972741l-8.110823 22.696577c-36.778979 20.774689-47.074806 9.003128-85.92439 4.861918l-3.237465 6.486371c-5.811422 13.727768 3.306104 22.879614 6.48637 32.431853-9.872553 0.297435-13.075699 1.578693-17.834659 6.48637 7.813388 13.910805 35.863795 25.064617 55.12843 25.945482 12.42363-9.071767 20.328537-24.88158 29.182948-37.29377 38.895344-7.744749 67.380463-6.154616 115.118777-1.624453l1.624453 4.861918c-37.831442 58.10278-95.121995 80.078649-150.776656 119.980695-26.07132 18.681205-37.087854 57.47359-63.227813 74.576102-23.360086 15.283582-64.062919 53.664134-71.338636 82.686925-27.85593-8.694253-22.273304-51.353293-35.669318-74.576102 9.47216-14.002324 23.657521-35.165967 16.210206-59.990348a26.826347 26.826347 0 0 0-14.585754-14.585754l-29.182947-1.624452c-13.64769 12.515149-35.028689 48.493342-25.979802 76.189114l9.723836 19.447672c2.97435 15.192064-1.818929 23.417285 8.110823 30.8074-14.734471 11.165252-7.893467 43.356868 1.624453 53.503977-6.440611 35.326124 0.549111 107.934579 37.29377 124.842614l8.110824 1.624452c42.578961-38.895344 64.56627-91.644294 68.10117-170.235767l8.110823-1.624453c11.714362 66.167843 22.330503 103.942086 53.503978 147.57351 5.994459 8.373939 22.570739 7.550273 27.558495 17.834659 9.552239 19.676468 5.662704 37.751363 25.945482 45.393154l42.155688 3.237465h3.237466v6.486371l-43.791581 4.816159c-25.47645 12.698186-19.516311 57.885423-58.343016 68.089731l-25.945482-24.32103c-3.592099-7.207078 0.297435-22.193225-6.486371-25.945482h-21.095004c-12.698186 11.554205-26.105639 20.911967-35.669318 35.669318v11.348288a22.319063 22.319063 0 0 0 17.834659 1.624453l3.237466-24.32103 1.624452-1.624452 6.486371 1.624452v32.431853c-10.65046 5.079274-18.784163 3.054428-19.447672 19.447672 15.535258 10.890696 26.963625 12.332112 32.431853 34.044865 15.821253 3.226026 29.263026 11.577085 42.155688 12.972742 11.542765 1.246939 17.068192-7.584592 24.32103-9.723836l29.182948-1.624453c20.671731-8.465457 40.31388-37.751363 61.6148-48.642059l21.060684-3.260345c19.264635-9.243364 26.025561-29.297346 51.879525-35.669318 37.888641 52.920547 210.011976-14.425597 244.811869-12.972741l1.624452 1.624452v1.624453c-9.758155 9.918313-33.701671 14.025203-40.531236 25.945482 4.644562 9.849674 10.524622 14.23112 17.834659 21.083564 9.655197-1.315578 13.258736-4.038252 19.447672-8.110823l21.072125 16.210207c25.659487 8.602735 37.751363-21.678434 51.879524 8.110823l1.624453 17.834659c-23.09697 24.023595-36.17267 55.849138-64.852266 74.576101-14.986147-11.176691-31.585307-18.99008-51.879524-25.945482l-12.961302 14.620073c-0.537671 1.441416 1.143981 31.745464 1.624453 34.044866 30.83028 9.369202 25.167575 11.188131 55.12843 1.624453 12.274913-3.923854 19.665028 1.292698 25.945482-8.110824l55.128429 25.945483 11.348289-9.723836c4.026812-16.01573 1.521494-24.629904-6.486371-35.669318 39.856287-19.504871 36.492984-54.991152 61.614801-71.338637l30.8074-3.237465c31.596747-1.899008 41.984092-16.381804 50.266512-43.780141 3.271785-10.833497 12.114756-16.541961 8.110823-32.431853-3.363303-6.371972-3.431942-6.200375-12.972741-6.48637-9.426401 6.795245-16.164447 14.437036-19.447672 27.558495-33.17544 25.762445-73.214765 4.381446-95.659666-17.83466-9.655197 1.315578-13.258736 4.038252-19.447672 8.110824-8.133703-5.536867-17.377067-8.90017-30.8074-9.723836-5.616945-18.475288 2.676915-24.29815 6.486371-38.895344 25.911163-99.354723 127.119135-7.275717 181.584055-61.6148 28.679596-28.599517 46.685852-94.893199 61.614801-134.566449v-24.33247c2.94003-17.537224 8.179462-21.632675 16.210206-32.431852h21.072124l3.191707 14.597193-17.834659 6.486371c-16.58772 21.850031-8.465457 45.335955 1.624452 68.089731 45.724908 6.657968 108.872643-122.428814 42.167129-150.776656z" fill="#2c2c2c" /></svg>