<?xml version="1.0" standalone="no"?><!DOCTYPE svg PUBLIC "-//W3C//DTD SVG 1.1//EN" "http://www.w3.org/Graphics/SVG/1.1/DTD/svg11.dtd"><svg class="icon" width="200px" height="200.00px" viewBox="0 0 1024 1024" version="1.1" xmlns="http://www.w3.org/2000/svg"><path d="M512 560.8C265.6 560.8 4 503.2 4 396V168.8c0-8.8 7.2-16 16-16s16 7.2 16 16C36 232 231.2 301.6 512 301.6s476-70.4 476-132.8c0-8.8 7.2-16 16-16s16 7.2 16 16v227.2c0 107.2-261.6 164.8-508 164.8zM36 229.6v166.4c0 63.2 195.2 132.8 476 132.8s476-70.4 476-132.8V229.6c-76.8 68-281.6 104-476 104s-399.2-36-476-104z" fill="#2c2c2c" /><path d="M512 790.4C265.6 790.4 4 732.8 4 625.6V398.4c0-8.8 7.2-16 16-16s16 7.2 16 16c0 63.2 195.2 132.8 476 132.8s476-70.4 476-132.8c0-8.8 7.2-16 16-16s16 7.2 16 16v227.2c0 107.2-261.6 164.8-508 164.8zM36 459.2v166.4c0 63.2 195.2 132.8 476 132.8s476-70.4 476-132.8V459.2c-76.8 68-281.6 104-476 104s-399.2-36-476-104z" fill="#2c2c2c" /><path d="M512 1020c-246.4 0-508-57.6-508-164.8V628c0-8.8 7.2-16 16-16s16 7.2 16 16c0 63.2 195.2 132.8 476 132.8s476-70.4 476-132.8c0-8.8 7.2-16 16-16s16 7.2 16 16v227.2c0 107.2-261.6 164.8-508 164.8zM36 688.8v166.4c0 63.2 195.2 132.8 476 132.8s476-70.4 476-132.8V688.8c-76.8 68-281.6 104-476 104s-399.2-36-476-104zM512 333.6C265.6 333.6 4 276 4 168.8 4 61.6 265.6 4 512 4s508 57.6 508 164.8c0 107.2-261.6 164.8-508 164.8z m0-297.6c-280.8 0-476 70.4-476 132.8C36 232 231.2 301.6 512 301.6s476-70.4 476-132.8c0-62.4-195.2-132.8-476-132.8z" fill="#2c2c2c" /><path d="M496 256.8v-15.2c-35.2-1.6-66.4-9.6-93.6-23.2l28-18.4c21.6 10.4 43.2 16.8 65.6 18.4v-40.8c-28.8-4-49.6-8.8-63.2-15.2-13.6-6.4-20-15.2-20-28 0-12 8-22.4 23.2-29.6 15.2-8 35.2-12 60-12.8v-10.4h24v11.2c28 0.8 54.4 6.4 79.2 16L574.4 128c-16.8-6.4-35.2-10.4-54.4-12v40h0.8c29.6 4 50.4 8.8 64.8 15.2 13.6 6.4 20.8 16 20.8 28s-8 22.4-24 30.4-36.8 12-62.4 12.8v15.2h-24zM469.6 120c-6.4 3.2-9.6 7.2-9.6 12s2.4 8.8 8 11.2c4.8 2.4 14.4 5.6 28.8 8v-36.8c-12 0.8-20.8 2.4-27.2 5.6z m80 92.8c7.2-3.2 10.4-7.2 10.4-12s-2.4-8.8-8-12c-5.6-3.2-16-5.6-31.2-8v38.4c12-0.8 21.6-3.2 28.8-6.4z" fill="#2c2c2c" /></svg>