<?xml version="1.0" standalone="no"?><!DOCTYPE svg PUBLIC "-//W3C//DTD SVG 1.1//EN" "http://www.w3.org/Graphics/SVG/1.1/DTD/svg11.dtd"><svg class="icon" width="200px" height="187.55px" viewBox="0 0 1092 1024" version="1.1" xmlns="http://www.w3.org/2000/svg"><path d="M62.2592 622.933333v62.395734c0 34.4064 27.8528 62.2592 62.2592 62.2592h842.9568c34.4064 0 62.395733-27.989333 62.395733-62.2592v-62.395734H62.2592z m905.216 186.914134h-281.258667v124.586666h62.327467a30.993067 30.993067 0 0 1 27.8528 15.291734 31.197867 31.197867 0 1 1-27.8528 47.104H374.715733a31.1296 31.1296 0 1 1 0-62.2592h62.2592v-124.586667H124.654933A124.654933 124.654933 0 0 1 0 685.329067V124.5184C0 55.7056 55.842133 0 124.654933 0h842.9568C1036.424533 0 1092.130133 55.7056 1092.266667 124.5184v560.674133a124.928 124.928 0 0 1-124.791467 124.654934z" /></svg>