<?xml version="1.0" standalone="no"?><!DOCTYPE svg PUBLIC "-//W3C//DTD SVG 1.1//EN" "http://www.w3.org/Graphics/SVG/1.1/DTD/svg11.dtd"><svg class="icon" width="200px" height="200.00px" viewBox="0 0 1024 1024" version="1.1" xmlns="http://www.w3.org/2000/svg"><path d="M1024 545.391304c0-75.686957-82.365217-140.243478-211.478261-180.313043 4.452174-28.93913 8.904348-57.878261 8.904348-84.591304 0-13.356522-8.904348-22.26087-22.26087-22.26087s-22.26087 8.904348-22.260869 22.26087c0 22.26087-2.226087 46.747826-6.678261 73.460869-44.521739-11.130435-91.269565-20.034783-142.469565-24.486956-31.165217-37.843478-62.330435-71.234783-93.495652-100.173913 20.034783-17.808696 40.069565-35.617391 62.330434-48.973914 11.130435-6.678261 13.356522-20.034783 6.678261-31.165217-6.678261-11.130435-20.034783-13.356522-31.165217-6.678261-24.486957 15.582609-46.747826 33.391304-71.234783 55.652174-106.852174-86.817391-209.252174-122.434783-273.808695-80.13913-57.878261 40.069565-71.234783 133.565217-40.069566 251.547826C73.46087 411.826087 0 474.156522 0 545.391304c0 73.46087 80.13913 140.243478 204.8 180.313044-4.452174 17.808696-6.678261 35.617391-8.904348 53.426087-11.130435 106.852174 11.130435 182.53913 66.782609 213.704348 15.582609 8.904348 35.617391 13.356522 55.652174 13.356521 60.104348 0 133.565217-40.069565 209.252174-111.304347 73.46087 60.104348 146.921739 95.721739 204.8 95.721739 24.486957 0 46.747826-6.678261 64.556521-17.808696 53.426087-35.617391 69.008696-113.530435 46.747827-220.382609-2.226087-11.130435-4.452174-20.034783-6.678261-31.165217 113.530435-44.521739 186.991304-106.852174 186.991304-175.86087z m-262.678261-151.373913c-6.678261 28.93913-15.582609 57.878261-26.713043 86.817392-11.130435-20.034783-24.486957-40.069565-37.843479-60.104348-11.130435-15.582609-20.034783-31.165217-31.165217-44.521739 35.617391 4.452174 66.782609 11.130435 95.721739 17.808695z m-97.947826 244.869566c-15.582609 28.93913-31.165217 55.652174-48.973913 80.13913-33.391304 2.226087-66.782609 4.452174-102.4 4.452174-33.391304 0-64.556522-2.226087-93.495652-4.452174-17.808696-24.486957-37.843478-48.973913-55.652174-75.686957-20.034783-31.165217-37.843478-62.330435-55.652174-91.269565 13.356522-28.93913 26.713043-57.878261 44.521739-86.817391 17.808696-33.391304 37.843478-64.556522 60.104348-95.721739 31.165217-2.226087 64.556522-4.452174 100.173913-4.452174 33.391304 0 64.556522 2.226087 93.495652 4.452174 17.808696 24.486957 37.843478 48.973913 55.652174 75.686956 20.034783 28.93913 37.843478 60.104348 53.426087 89.043479-15.582609 35.617391-31.165217 69.008696-51.2 104.626087z m75.686957-53.426087c15.582609 35.617391 31.165217 69.008696 42.295652 102.4-33.391304 8.904348-69.008696 15.582609-109.078261 22.260869 11.130435-17.808696 20.034783-33.391304 31.165217-51.2 13.356522-24.486957 24.486957-48.973913 35.617392-73.460869z m-280.486957 180.313043c17.808696 0 35.617391 2.226087 53.426087 2.226087 24.486957 0 46.747826 0 69.008696-2.226087-20.034783 24.486957-37.843478 48.973913-57.878261 69.008696-20.034783-20.034783-42.295652-44.521739-64.556522-69.008696zM358.4 712.347826c-35.617391-4.452174-69.008696-11.130435-100.173913-20.034783 6.678261-28.93913 17.808696-57.878261 28.93913-89.043478 13.356522 22.26087 24.486957 42.295652 40.069566 64.556522 8.904348 15.582609 20.034783 31.165217 31.165217 44.521739z m-75.686957-211.478261c-17.808696-35.617391-31.165217-69.008696-42.295652-102.4 33.391304-8.904348 71.234783-17.808696 111.304348-22.260869l-40.069565 66.782608c-8.904348 20.034783-17.808696 40.069565-28.939131 57.878261z m282.713044-178.086956c-17.808696 0-35.617391-2.226087-53.426087-2.226087-22.26087 0-44.521739 0-66.782609 2.226087 17.808696-24.486957 37.843478-46.747826 57.878261-66.782609 20.034783 22.26087 42.295652 42.295652 62.330435 66.782609zM253.773913 155.826087c11.130435-6.678261 24.486957-11.130435 42.295652-11.130435 44.521739 0 106.852174 28.93913 175.86087 84.591305-28.93913 28.93913-55.652174 62.330435-82.365218 100.173913-57.878261 6.678261-109.078261 15.582609-158.052174 28.93913-26.713043-102.4-17.808696-175.86087 22.26087-202.573913zM44.521739 545.391304c0-46.747826 57.878261-95.721739 155.826087-131.33913 13.356522 44.521739 33.391304 91.269565 60.104348 140.243478-17.808696 42.295652-33.391304 86.817391-44.521739 126.886957C109.078261 645.565217 44.521739 594.365217 44.521739 545.391304z m240.417391 407.373913c-37.843478-20.034783-53.426087-82.365217-44.521739-169.182608l6.678261-46.747826c44.521739 11.130435 93.495652 20.034783 146.921739 24.486956 31.165217 40.069565 64.556522 73.46087 97.947826 104.626087-82.365217 80.13913-162.504348 111.304348-207.026087 86.817391z m514.226087-193.669565c17.808696 86.817391 6.678261 151.373913-28.93913 175.86087-42.295652 28.93913-122.434783 2.226087-213.704348-71.234783 28.93913-31.165217 55.652174-64.556522 82.365218-102.4 55.652174-6.678261 106.852174-15.582609 153.6-28.93913 4.452174 8.904348 6.678261 17.808696 6.67826 26.713043z m24.486957-82.365217c-15.582609-46.747826-35.617391-93.495652-60.104348-142.469565 17.808696-42.295652 31.165217-84.591304 42.295652-126.886957 109.078261 35.617391 175.86087 86.817391 175.86087 138.017391-2.226087 46.747826-60.104348 95.721739-158.052174 131.339131z" fill="#2c2c2c" /><path d="M741.286957 131.33913m-111.304348 0a111.304348 111.304348 0 1 0 222.608695 0 111.304348 111.304348 0 1 0-222.608695 0Z" fill="#2c2c2c" /></svg>