<?xml version="1.0" standalone="no"?><!DOCTYPE svg PUBLIC "-//W3C//DTD SVG 1.1//EN" "http://www.w3.org/Graphics/SVG/1.1/DTD/svg11.dtd"><svg class="icon" width="200px" height="200.00px" viewBox="0 0 1024 1024" version="1.1" xmlns="http://www.w3.org/2000/svg"><path d="M446.1 896.3c-1.4 0-2.8-0.1-4.2-0.5-2.3-0.5-227.5-52.5-220.5-304.7 2.8-102.6 75.8-188 129.1-250.4 16.6-19.4 30.9-36.2 40.9-50.7 50.9-73.8 53.3-150.2 53.3-150.9 0.2-7.3 4.3-13.8 10.7-17.2 6.4-3.4 14.2-2.9 20.2 1.1 14.4 9.6 352.8 237 343.1 474.8-9.9 241.9-246.9 297.4-249.3 298-9.2 2-18.5-2.6-22.4-11.1-3.9-8.5-1.4-18.6 6.1-24.2 2.1-1.6 52.1-40.7 52.8-119.2 0.4-43.4-21.4-73.6-44.4-105.5-8.2-11.3-16.6-23.1-23.9-35.3-11.8-19.8-18.2-47.4-21.7-69.3-39.2 30.5-108.5 92.5-120.2 158.1-19.5 108.5 47.8 160.9 59.3 169 6.8 3.2 11.5 10.1 11.5 18 0 11-9.6 20.3-20 19.9-0.2 0.1-0.3 0.1-0.4 0.1z" /></svg>