<?xml version="1.0" standalone="no"?><!DOCTYPE svg PUBLIC "-//W3C//DTD SVG 1.1//EN" "http://www.w3.org/Graphics/SVG/1.1/DTD/svg11.dtd"><svg class="icon" width="200px" height="200.00px" viewBox="0 0 1024 1024" version="1.1" xmlns="http://www.w3.org/2000/svg"><path d="M537.6 531.2c-19.2 38.4-25.6 70.4-6.4 89.6 6.4 6.4 19.2 19.2 51.2 0 102.4-51.2 224-275.2 230.4-326.4-38.4 6.4-204.8 121.6-275.2 236.8zM326.4 576c12.8 0 19.2-6.4 19.2-19.2 0-6.4 0-12.8-6.4-12.8s-12.8-6.4-12.8-6.4c-12.8 0-19.2 6.4-19.2 19.2 0 6.4 6.4 19.2 19.2 19.2z" fill="#2c2c2c" /><path d="M512 0C230.4 0 0 230.4 0 512s230.4 512 512 512 512-230.4 512-512-230.4-512-512-512z m-12.8 838.4c-12.8 0-19.2-6.4-19.2-19.2 0-12.8 6.4-19.2 19.2-19.2 160 0 288-128 288-288 0-12.8 6.4-19.2 19.2-19.2 12.8 0 19.2 6.4 19.2 19.2 0 179.2-147.2 326.4-326.4 326.4z m83.2-172.8c-12.8 6.4-19.2 6.4-32 6.4s-32-6.4-44.8-12.8c12.8 12.8 25.6 32 25.6 51.2 0 32-19.2 70.4-57.6 96-38.4 32-89.6 38.4-134.4 38.4-32 0-57.6-6.4-89.6-12.8-6.4 0-12.8-6.4-12.8-19.2 0-6.4 0-19.2 6.4-19.2 25.6-19.2 44.8-38.4 64-64 25.6-38.4 64-89.6 108.8-102.4 32-6.4 57.6 0 76.8 12.8 0 0 6.4 0 6.4 6.4-25.6-25.6-44.8-89.6 51.2-204.8 38.4-44.8 96-96 153.6-140.8-76.8-70.4-185.6-96-281.6-64-102.4 25.6-179.2 102.4-204.8 204.8-25.6 102.4 6.4 204.8 83.2 281.6 6.4 6.4 6.4 12.8 6.4 25.6 0 6.4-12.8 12.8-19.2 12.8-6.4 0-12.8 0-12.8-6.4-64-64-102.4-147.2-102.4-243.2 0-134.4 83.2-256 204.8-307.2 121.6-51.2 268.8-25.6 358.4 70.4l6.4 6.4c44.8-25.6 83.2-38.4 108.8-25.6 12.8 12.8 19.2 25.6 12.8 38.4-19.2 83.2-166.4 332.8-281.6 371.2z m-256-172.8c32 0 64 25.6 64 64 0 32-25.6 64-64 64-32 0-64-25.6-64-64s25.6-64 64-64zM288 384c0-44.8 38.4-83.2 83.2-83.2 44.8 0 83.2 38.4 83.2 83.2s-38.4 83.2-83.2 83.2c-44.8 0-83.2-38.4-83.2-83.2z m192-76.8c0-32 25.6-64 64-64s64 25.6 64 64c0 32-25.6 64-64 64-38.4-6.4-64-32-64-64z" fill="#2c2c2c" /><path d="M467.2 678.4c-12.8-6.4-25.6-12.8-38.4-6.4-25.6 6.4-57.6 38.4-83.2 83.2-12.8 19.2-25.6 32-38.4 44.8 44.8 6.4 102.4 6.4 147.2-25.6 25.6-19.2 38.4-44.8 38.4-64 0-12.8-12.8-25.6-25.6-32zM416 384c0-25.6-19.2-38.4-44.8-38.4-25.6 0-38.4 12.8-38.4 38.4s19.2 44.8 44.8 44.8 38.4-19.2 38.4-44.8zM556.8 307.2c0-6.4 0-12.8-6.4-12.8 0-6.4-6.4-6.4-12.8-6.4-12.8 0-19.2 6.4-19.2 19.2 0 12.8 6.4 19.2 19.2 19.2 12.8 0 19.2-6.4 19.2-19.2zM499.2 646.4c6.4 6.4 6.4 6.4 12.8 6.4-6.4 0-12.8-6.4-12.8-6.4zM736 294.4v-12.8c-12.8 6.4-19.2 12.8-32 19.2 6.4 6.4 12.8 6.4 19.2 6.4 6.4 0 12.8-6.4 12.8-12.8z" fill="#2c2c2c" /></svg>