<?xml version="1.0" standalone="no"?>
<!DOCTYPE svg PUBLIC "-//W3C//DTD SVG 20010904//EN"
 "http://www.w3.org/TR/2001/REC-SVG-20010904/DTD/svg10.dtd">
<svg version="1.0" xmlns="http://www.w3.org/2000/svg"
 width="3000.000000pt" height="2400.000000pt" viewBox="0 0 3000.000000 2400.000000"
 preserveAspectRatio="xMidYMid meet">
<metadata>
Created by potrace 1.15, written by Peter Selinger 2001-2017
</metadata>
<g transform="translate(0.000000,2400.000000) scale(0.100000,-0.100000)"
fill="#000000" stroke="none">
<path d="M6135 18059 c-273 -51 -427 -139 -534 -302 -246 -377 -150 -1165 284
-2332 263 -706 589 -1337 1038 -2010 245 -367 261 -410 261 -720 1 -168 -2
-205 -15 -230 -28 -50 -53 -67 -102 -67 -57 0 -93 19 -195 103 -153 127 -297
214 -682 412 -759 391 -1482 613 -2245 689 -196 20 -751 16 -940 -5 -329 -38
-786 -125 -880 -167 -52 -23 -88 -62 -83 -91 7 -46 42 -58 314 -104 1225 -207
2249 -523 3314 -1024 526 -248 1195 -630 1325 -757 104 -102 164 -254 165
-417 0 -51 -4 -69 -15 -73 -9 -4 -125 52 -273 129 -1154 604 -2150 917 -3207
1008 -182 16 -711 16 -890 0 -679 -59 -1283 -210 -1905 -476 -111 -47 -604
-287 -619 -301 -2 -2 -1 -7 3 -11 9 -9 99 -7 301 6 409 28 493 33 655 41 294
14 1303 5 1550 -14 883 -67 1636 -200 2391 -422 369 -108 838 -275 846 -300 2
-7 -9 -15 -24 -18 -15 -4 -111 -43 -213 -86 -285 -122 -328 -127 -651 -81
-280 39 -501 54 -824 55 -279 1 -609 -8 -675 -18 -14 -2 -59 -7 -100 -11 -41
-3 -152 -17 -247 -30 -543 -78 -995 -236 -1393 -488 -274 -173 -527 -404 -633
-576 -58 -96 -68 -127 -43 -137 7 -3 209 40 447 95 955 219 1204 260 1959 316
353 27 803 21 914 -12 18 -5 18 -7 -5 -19 -14 -7 -126 -36 -249 -64 -328 -76
-486 -137 -676 -263 -297 -196 -516 -484 -624 -820 -20 -61 -38 -101 -50 -107
-12 -6 -326 -10 -867 -10 -717 0 -852 -2 -869 -14 -17 -13 -19 -30 -22 -168
-4 -171 5 -222 41 -232 12 -3 389 -6 837 -6 448 0 825 -3 837 -6 26 -7 36 -33
57 -147 83 -447 377 -839 796 -1061 112 -59 297 -125 420 -150 251 -50 427
-48 757 10 84 15 114 16 175 8 115 -17 176 -53 313 -184 138 -132 212 -192
321 -256 186 -110 382 -175 629 -210 335 -46 715 40 989 226 95 64 210 171
284 265 122 155 182 202 292 224 30 6 156 22 280 37 339 38 526 74 720 138
559 182 907 504 1052 971 17 55 40 108 50 118 19 16 271 17 4999 17 3627 0
4985 -3 5002 -11 31 -14 39 -29 81 -160 64 -197 149 -341 291 -488 334 -346
791 -522 1554 -596 167 -16 214 -26 276 -57 76 -39 124 -81 206 -179 225 -273
465 -421 789 -486 122 -25 466 -24 605 1 201 36 416 122 570 226 103 70 138
100 261 220 115 112 175 151 269 176 57 16 162 18 220 4 191 -43 520 -55 690
-25 353 62 685 238 923 490 106 112 170 203 237 335 75 150 124 309 141 457 4
37 13 68 22 75 12 10 207 14 904 18 866 5 890 6 904 24 11 15 14 59 14 188 0
155 -2 170 -20 188 -20 20 -33 20 -917 20 -494 0 -909 3 -922 7 -18 4 -35 32
-76 119 -69 147 -121 225 -237 359 -325 375 -733 623 -1190 720 -161 35 -170
38 -166 72 2 20 11 29 33 36 45 13 581 12 805 -2 523 -32 1032 -95 1440 -177
294 -59 808 -184 924 -224 107 -36 169 -21 182 44 8 45 -4 65 -110 185 -303
342 -738 612 -1276 792 -487 162 -998 230 -1625 215 -154 -3 -302 -9 -330 -12
-27 -2 -140 -14 -250 -26 -316 -34 -538 -28 -785 22 -110 22 -349 89 -434 120
-49 19 -56 24 -45 36 17 16 386 141 659 223 868 262 1742 424 2595 481 88 6
180 13 205 15 25 3 261 7 525 9 608 5 1005 -15 1549 -79 257 -31 256 -31 256
-5 0 38 -39 99 -82 128 -107 72 -384 213 -599 305 -521 222 -1121 355 -1799
397 -139 9 -711 5 -815 -5 -27 -2 -106 -9 -175 -15 -657 -55 -1354 -217 -1980
-458 -288 -111 -468 -192 -775 -347 -283 -144 -357 -186 -478 -276 -87 -65
-118 -72 -160 -39 -73 58 -44 287 53 408 49 62 84 89 260 198 1178 732 2427
1236 3770 1524 187 40 652 126 929 173 163 27 178 39 117 93 -48 42 -110 65
-301 114 -329 84 -683 129 -1073 137 -574 11 -1084 -61 -1668 -237 -630 -190
-1300 -508 -1804 -855 -58 -40 -123 -84 -144 -99 -53 -35 -99 -35 -123 2 -86
126 -108 470 -42 648 11 28 59 107 107 175 491 696 902 1496 1215 2364 226
628 314 1007 335 1445 19 395 -44 645 -202 803 -106 106 -231 159 -463 197
-119 19 -160 21 -420 17 -284 -4 -291 -4 -524 -45 -1047 -184 -1978 -503
-2905 -997 -127 -68 -259 -135 -294 -149 -133 -54 -281 -69 -422 -42 -98 19
-174 46 -353 123 -933 405 -1918 658 -2930 753 -115 10 -271 22 -345 25 -74 4
-148 8 -165 10 -42 6 -846 6 -925 0 -36 -3 -141 -9 -235 -15 -1200 -74 -2323
-351 -3415 -840 -259 -117 -272 -121 -350 -121 -83 0 -125 15 -252 92 -131 80
-549 291 -783 397 -906 407 -1921 710 -2645 789 -234 25 -626 27 -755 2z
m6155 -4730 c870 -148 1556 -848 1684 -1719 82 -557 -59 -1110 -393 -1540
-709 -914 -2040 -1067 -2921 -335 -487 406 -773 1034 -747 1645 13 309 84 572
229 850 326 627 926 1046 1603 1119 131 14 404 4 545 -20z m6090 6 c307 -50
601 -172 869 -363 110 -78 315 -272 403 -381 245 -304 392 -646 448 -1040 16
-114 13 -390 -5 -520 -104 -733 -610 -1372 -1289 -1626 -247 -92 -456 -128
-736 -129 -340 0 -610 60 -906 205 -578 281 -985 829 -1111 1494 -24 127 -29
455 -9 599 61 434 258 833 570 1155 353 363 794 578 1273 621 129 11 374 4
493 -15z m-3155 -4515 c246 -18 552 -78 648 -126 60 -30 107 -85 124 -144 20
-70 49 -128 80 -161 l25 -27 -99 -7 c-124 -8 -2029 -2 -2038 7 -9 9 41 163 71
215 57 99 167 151 424 197 273 49 525 64 765 46z"/>
<path d="M11897 11706 c-97 -36 -145 -128 -212 -406 -55 -232 -70 -364 -69
-650 0 -224 3 -287 22 -405 41 -261 113 -510 168 -582 74 -97 229 -94 298 6
62 89 121 264 157 466 18 101 22 171 26 448 7 437 -11 605 -93 857 -72 221
-173 312 -297 266z"/>
<path d="M18030 11710 c-54 -15 -92 -43 -121 -88 -58 -92 -133 -374 -164 -623
-20 -159 -20 -500 0 -669 25 -218 94 -523 136 -605 91 -176 286 -178 374 -5
50 100 105 298 130 465 23 156 23 771 0 933 -28 200 -93 410 -155 503 -45 68
-134 108 -200 89z"/>
</g>
</svg>
