<?xml version="1.0" encoding="iso-8859-1"?>
<!-- Generator: Adobe Illustrator 16.0.0, SVG Export Plug-In . SVG Version: 6.00 Build 0)  -->
<!DOCTYPE svg PUBLIC "-//W3C//DTD SVG 1.1//EN" "http://www.w3.org/Graphics/SVG/1.1/DTD/svg11.dtd">
<svg version="1.1" id="Capa_1" xmlns="http://www.w3.org/2000/svg" xmlns:xlink="http://www.w3.org/1999/xlink" x="0px" y="0px"
	 width="365.554px" height="365.554px" viewBox="0 0 365.554 365.554" style="enable-background:new 0 0 365.554 365.554;"
	 xml:space="preserve">
<g>
	<g>
		<path d="M164.597,130.355c0,0-5.369-15.788-8.061-21.608c-2.074-4.491-2.95-7.195-6.668-8.68s-7.961-0.611-10.789,2.222
			c-44.597,44.684-64.847,91.403-77.077,126.292c-9.089,25.931-13.485,47.314-15.573,60.687v0.001
			c-23.087,25.972-35.76,44.38-36.283,45.145c-1.621,2.363-2.226,5.217-1.7,8.035s2.116,5.264,4.454,6.865
			c1.801,1.243,3.903,1.9,6.082,1.9c3.544,0,6.855-1.743,8.854-4.657c0.115-0.168,11.83-17.117,32.96-41.104
			c70.437-6.204,131.084-31.912,180.257-76.408c2.862-2.59,3.979-6.599,2.866-10.295c-1.111-3.697-4.253-6.425-8.068-7.007
			c-8.084-1.231-15.791-2.762-22.906-4.546c17.283-2.429,38.336-8.188,62.573-17.124c1.764-0.649,3.309-1.783,4.457-3.271
			c54.34-70.401,72.788-151.714,77.146-174.958c0.585-3.116-0.344-6.325-2.501-8.648c-2.158-2.324-5.293-3.484-8.439-3.133
			c-30.938,3.466-60.318,10.437-87.327,20.72c-3.571,1.36-6.056,4.636-6.401,8.441c-0.548,6.036-1.289,28.651-1.289,28.651
			s-2.666-16.118-3.386-19.453c-0.642-2.968-2.597-5.485-5.313-6.839c-2.719-1.355-5.904-1.401-8.659-0.126
			c-25.812,11.941-43.341,24.816-58.438,36.952c-1.436,1.153-2.523,2.681-3.146,4.414
			C163.006,98.462,163.111,115.626,164.597,130.355"/>
		<path d="M323.94,264.181h-0.294V255.6c4.17-1.471,7.163-5.435,7.163-10.107c0-5.925-4.804-10.728-10.729-10.728h-48.062
			c-5.925,0-10.729,4.803-10.729,10.728c0,4.673,2.992,8.638,7.163,10.107v8.581h-0.295c-14.812,0-26.82,12.008-26.82,26.82v47.732
			c0,14.812,12.01,26.82,26.82,26.82h55.779c14.812,0,26.819-12.008,26.819-26.82v-47.732
			C350.76,276.189,338.75,264.181,323.94,264.181z"/>
	</g>
</g>
<g>
</g>
<g>
</g>
<g>
</g>
<g>
</g>
<g>
</g>
<g>
</g>
<g>
</g>
<g>
</g>
<g>
</g>
<g>
</g>
<g>
</g>
<g>
</g>
<g>
</g>
<g>
</g>
<g>
</g>
</svg>
