<?xml version="1.0" standalone="no"?><!DOCTYPE svg PUBLIC "-//W3C//DTD SVG 1.1//EN" "http://www.w3.org/Graphics/SVG/1.1/DTD/svg11.dtd"><svg class="icon" width="200px" height="200.00px" viewBox="0 0 1024 1024" version="1.1" xmlns="http://www.w3.org/2000/svg"><path d="M512 128a384 384 0 1 0 384 384 384 384 0 0 0-384-384z m0 704a320 320 0 1 1 320-320 320 320 0 0 1-320 320z" fill="#2c2c2c" /><path d="M559.36 261.12q-11.52 19.84-23.68 39.68A212.48 212.48 0 0 1 714.24 448q15.36-22.4 28.16-44.8a256 256 0 0 0-183.04-142.08z" fill="#2c2c2c" /><path d="M919.04 104.96C842.88 28.16 670.72 69.76 493.44 192H512a307.2 307.2 0 0 1 79.36 11.52c128-76.8 234.24-101.76 282.88-53.76 74.88 74.88-26.24 297.6-226.56 497.92s-423.04 301.44-497.92 226.56c-48-48-23.04-157.44 53.76-282.88A307.2 307.2 0 0 1 192 512v-17.92c-122.24 176.64-163.84 348.8-87.04 424.96 99.84 99.84 363.52 0 588.16-226.56s326.4-487.68 225.92-587.52z" fill="#2c2c2c" /></svg>