<?xml version="1.0" standalone="no"?><!DOCTYPE svg PUBLIC "-//W3C//DTD SVG 1.1//EN" "http://www.w3.org/Graphics/SVG/1.1/DTD/svg11.dtd"><svg class="icon" width="200px" height="200.00px" viewBox="0 0 1024 1024" version="1.1" xmlns="http://www.w3.org/2000/svg"><path d="M958.632223 565.06252c0-97.822956-73.257467-178.683589-167.754678-191.071733l0-22.175045c0.781806-6.213515 1.319042-12.501732 1.319042-18.924002 0-3.780093-0.741897-7.353478-1.817392-10.779507-5.116531-78.403674-70.363558-140.674926-150.042271-140.674926l-56.774051 0c-19.980054 0-36.169781 16.194844-36.169781 36.169781s16.188704 36.169781 36.169781 36.169781l56.774051 0c43.115983 0 78.202083 35.074843 78.202083 78.190827l0 14.907525c-6.628978 36.703947-38.759769 64.654532-77.354785 64.654532L216.386282 411.529751c-38.58683 0-70.710458-27.931143-77.354785-64.615647l0-14.94641c0-43.115983 35.07996-78.190827 78.196966-78.190827l44.658106 0c19.974937 0 36.169781-16.194844 36.169781-36.169781s-16.194844-36.169781-36.169781-36.169781l-44.658106 0c-79.672574 0-144.909367 62.261019-150.035108 140.655484-1.080611 3.431146-1.824555 7.011694-1.824555 10.79895 0 6.435573 0.538259 12.736069 1.324158 18.961864l0 403.245064c0 82.994226 67.528999 150.511969 150.535505 150.511969l423.107437 0c82.654488 0 149.919475-66.957994 150.488433-149.46922C885.34815 743.776807 958.632223 662.903895 958.632223 565.06252zM640.3359 833.273121 217.22744 833.273121c-43.115983 0-78.196966-35.068703-78.196966-78.17343L139.030473 462.319507c22.660092 13.588483 49.062416 21.550829 77.354785 21.550829l424.796916 0c28.291346 0 54.694693-7.962346 77.354785-21.552875l0 292.783253C718.537983 798.204417 683.451884 833.273121 640.3359 833.273121zM790.876522 682.947394 790.876522 447.178669c54.438866 11.604292 95.41614 60.031235 95.41614 117.883851S845.316411 671.342078 790.876522 682.947394z" fill="#2c2c2c" /><path d="M345.481476 320.712349c-5.810333 11.979846-0.806365 26.403347 11.17962 32.219819 3.391237 1.642406 6.975878 2.419096 10.508331 2.419096 8.947789 0 17.543561-5.003967 21.711488-13.598716 1.483794-3.072989 36.063357-75.894528-2.202155-128.500653-19.09694-26.25599-1.74269-53.919027 0.400113-57.120952 7.476275-10.914584 4.756327-25.843598-6.122441-33.414017-10.961656-7.617491-25.961278-4.915963-33.567513 6.022157-1.636267 2.343371-39.542598 58.115606 0.294712 112.876814C365.273241 265.810948 352.038822 306.966277 345.481476 320.712349z" fill="#2c2c2c" /><path d="M466.046389 320.712349c-5.804193 11.979846-0.800225 26.403347 11.17348 32.219819 3.391237 1.642406 6.982018 2.419096 10.514471 2.419096 8.947789 0 17.543561-5.003967 21.711488-13.598716 1.483794-3.072989 36.063357-75.894528-2.202155-128.500653-19.09694-26.25599-1.74269-53.919027 0.400113-57.120952 7.476275-10.914584 4.756327-25.843598-6.122441-33.414017-10.961656-7.617491-25.961278-4.915963-33.567513 6.022157-1.636267 2.343371-39.536458 58.115606 0.294712 112.876814C485.838154 265.810948 472.604758 306.966277 466.046389 320.712349z" fill="#2c2c2c" /></svg>