<?xml version="1.0" standalone="no"?><!DOCTYPE svg PUBLIC "-//W3C//DTD SVG 1.1//EN" "http://www.w3.org/Graphics/SVG/1.1/DTD/svg11.dtd"><svg class="icon" width="200px" height="164.10px" viewBox="0 0 1248 1024" version="1.1" xmlns="http://www.w3.org/2000/svg"><path d="M1107.798 955.154c-73.367 0-132.477-59.11-132.477-132.477V301.811c0-18.429 14.951-33.38 33.38-33.38h149.167c45.55 0 82.754 36.857 82.754 82.754v471.492c-0.348 73.366-59.458 132.477-132.824 132.477zM1042.08 335.19v488.182c0 36.51 29.555 66.065 66.064 66.065s66.065-29.555 66.065-66.065V351.185c0-9.388-7.302-16.69-16.69-16.69h-115.091v0.695h-0.348z" fill="#2c2c2c" /><path d="M1114.752 953.763H140.126c-73.366 0-132.476-59.11-132.476-132.477V151.601c0-45.55 36.857-82.755 82.754-82.755h868.922c45.55 0 82.755 36.857 82.755 82.755v657.515c0 69.194 36.51 78.235 71.975 78.235 18.429 0 33.38 14.951 33.38 33.38s-14.951 33.032-32.684 33.032zM90.404 134.911c-9.388 0-16.69 7.302-16.69 16.69v670.033c0 36.51 29.555 66.064 66.065 66.064H992.01c-11.127-21.557-17.386-47.983-17.386-78.234V151.601c0-9.388-7.301-16.69-16.69-16.69H90.405z" fill="#2c2c2c" /><path d="M869.965 272.95H180.808c-18.428 0-33.38-14.95-33.38-33.38s14.952-33.38 33.38-33.38h689.157c18.429 0 33.38 14.952 33.38 33.38 0 17.734-14.951 33.38-33.38 33.38zM479.142 561.897H180.808c-18.428 0-33.38-14.951-33.38-33.38V380.045c0-18.429 14.952-33.38 33.38-33.38h297.638c18.429 0 33.38 14.951 33.38 33.38v149.167c0.696 18.08-14.256 32.684-32.684 32.684z m-264.954-66.064h231.226v-82.755H214.188v82.755z m655.777-83.798H599.45c-17.734 0-32.685-14.951-32.685-32.685 0-17.733 14.951-32.684 32.685-32.684h270.516c17.733 0 32.685 14.951 32.685 32.684 0 18.777-14.256 32.685-32.685 32.685z m0 149.862H599.45c-17.734 0-32.685-14.951-32.685-32.684 0-17.734 14.951-32.685 32.685-32.685h270.516c17.733 0 32.685 14.951 32.685 32.685 0 18.428-14.256 32.684-32.685 32.684z" fill="#2c2c2c" /></svg>